<!DOCTYPE svg PUBLIC "-//W3C//DTD SVG 1.1//EN" "http://www.w3.org/Graphics/SVG/1.1/DTD/svg11.dtd">
<svg xmlns="http://www.w3.org/2000/svg" viewBox="0 0 1920 3240">
<path d="M1248.094 1452.25c-1.253 3.293-35.303 91.056-49.718 128.149-15.019 38.646-16.633 41.418-26.992 46.358-2.232 1.064-3.384 2.316-3.384 3.678.001 2.027.449 2.067 24.553 2.184 24.466.118 24.551.111 24.249-1.999-.253-1.774-1.232-2.234-6.026-2.83-19.16-2.382-20.691-11.901-7.462-46.381l6.487-16.909 31.35-.259 31.349-.259 8.893 23.759c9.412 25.145 10.918 31.609 8.298 35.608-1.626 2.482-7.984 4.651-13.634 4.651-2.52 0-3.057.403-3.057 2.292v2.291l30-.041 30-.042v-2.171c0-1.61-.794-2.344-3.074-2.845-4.058-.892-9.539-5.805-12.121-10.867-1.143-2.24-10.283-25.232-20.312-51.095-46.571-120.1-44.721-115.522-46.686-115.522-1.021 0-2.242 1.013-2.713 2.25m-681.844-.487c-32.547.25-34.25.355-34.25 2.111 0 1.471 1.018 1.968 4.999 2.44 7.22.855 11.543 3.23 13.674 7.513 2.692 5.412 2.842 150.437.161 156.345-2.228 4.908-5.253 6.693-12.653 7.467-5.46.571-6.181.897-6.181 2.798v2.152l43.75-.127c41.275-.12 44.188-.247 51.483-2.249 33.424-9.173 54.944-31.256 62.431-64.061 2.371-10.393 2.882-34.841.979-46.858-6.136-38.742-29.251-61.202-68.143-66.213-11.369-1.465-17.733-1.614-56.25-1.318m306.856-.006-71.394.256.637 6.744c.35 3.709.64 15.631.644 26.493L803 1505h2.455c2.002 0 2.545-.599 2.945-3.25 5.939-39.31 11.144-44.75 42.812-44.75h10.845l-.278 79.75c-.273 78.035-.323 79.825-2.307 83.25-2.659 4.59-7.733 6.971-16.411 7.698-6.342.532-7.061.808-7.061 2.713v2.121h38.039c37.567 0 38.035-.025 37.75-2.016-.246-1.714-1.3-2.116-7.038-2.683-7.847-.776-13.276-3.176-16.186-7.156-2.036-2.782-2.072-3.961-2.565-83.25l-.5-80.428 11.114.001c28.025 0 35.544 5.776 40.447 31.067 1.066 5.502 1.939 11.563 1.939 13.468 0 3.184.243 3.465 3.004 3.465h3.004l-.606-12.75c-.333-7.013-.132-18.825.447-26.25.578-7.424.737-13.724.351-14-.385-.275-32.827-.384-72.094-.243M375 1453.861c0 1.492 1.01 1.98 5.098 2.464 2.804.332 6.742 1.407 8.75 2.39 6.967 3.406 6.652-.534 6.652 83.285 0 82.192.219 78.939-5.597 83.241-1.588 1.175-4.987 2.138-8.75 2.479-5.497.498-6.153.791-6.153 2.751v2.193l66.547-.082 66.547-.082-.754-8c-.415-4.4-.774-15.763-.797-25.25L506.5 1582h-2.528c-2.408 0-2.584.395-3.679 8.25-4.42 31.709-16.1 39.334-57.293 37.404-24.445-1.146-23.947-.069-23.98-51.904L419 1544l11.25.006c21.931.01 26.8 4.196 29.946 25.744 1.195 8.181 1.229 8.25 4.133 8.25h2.929l-.751-6.25c-.414-3.437-.854-19.712-.978-36.165-.223-29.696-.241-29.918-2.36-30.241-2.34-.358-2.374-.271-4.224 10.656-3.153 18.63-8.475 23-28.008 23H418.81l.362-35.75c.501-49.501-1.621-46.665 34.448-46.048 24.919.427 27.952 1.144 33.814 7.992 3.711 4.336 6.944 14.477 8.146 25.556.641 5.905.823 6.25 3.299 6.249l2.621-.001.051-17.249c.028-9.487.381-19.611.785-22.499l.733-5.25h-64.035c-61.769 0-64.034.066-64.034 1.861m343 .01c0 1.502 1.034 2.009 5.238 2.566 7.563 1.003 11.727 3.289 13.635 7.485 2.51 5.521 2.474 150.712-.039 156.25-2.228 4.908-5.253 6.693-12.653 7.467-5.415.566-6.181.907-6.181 2.753 0 2.1.12 2.108 32.5 2.126 32.496.018 32.5.018 32.5-2.111 0-1.864-.717-2.196-5.75-2.662-7.365-.682-10.453-2.145-12.835-6.08-2.634-4.353-3.024-152.947-.415-158.165 1.827-3.655 7.083-6.367 13.902-7.175 4.088-.484 5.098-.972 5.098-2.464 0-1.776-1.478-1.861-32.5-1.861-31.087 0-32.5.081-32.5 1.871m299 .047c0 1.212 1.356 2.592 3.686 3.75 5.673 2.82 7.257 5.398 36.276 59.029l27.16 50.197-.311 26.35c-.387 32.799-.376 32.774-14.799 34.576-4.594.574-5.512 1.018-5.512 2.667 0 1.931.798 1.98 32.79 2.021 32.364.041 32.786.015 32.5-1.983-.235-1.642-1.292-2.147-5.581-2.671-14.558-1.777-14.633-1.973-15.013-39.005l-.304-29.651 10.147-20.349c32.455-65.08 40.453-78.739 47.916-81.83 1.865-.773 3.045-1.99 3.045-3.14 0-1.787-1.194-1.879-24.5-1.879-22.908 0-24.5.117-24.5 1.796 0 1.445 1.383 2.034 7.065 3.008 14.237 2.442 18.734 8.879 14.88 21.297-1.272 4.098-38.177 78.902-38.922 78.892-1.151-.015-45.168-86.11-45.699-89.384-.812-5.003 3.434-9.18 10.263-10.098 6.856-.921 7.413-1.183 7.413-3.48 0-1.995-.517-2.031-29-2.031-27.918 0-29 .072-29 1.918m326-.057c0 1.481.996 1.978 4.887 2.439 7.867.932 11.95 3.11 13.899 7.414 2.866 6.331 2.602 150.022-.286 155.758-2.432 4.83-6.634 7.401-13.403 8.203-4.338.514-5.097.92-5.097 2.725 0 2.105.197 2.122 25.042 2.147 24.622.025 25.036-.008 24.75-2.01-.241-1.677-1.309-2.161-6.073-2.754-8.223-1.022-12.415-3.303-15.019-8.171l-2.2-4.112-.241-74c-.148-45.562.115-73.408.683-72.459.508.847 8.857 21.997 18.554 47 47.846 123.369 45.649 117.961 47.906 117.933 2.196-.026.035 5.57 53.67-138.974 5-13.475 9.526-24.949 10.058-25.498.622-.643.86 25.344.668 73-.289 71.681-.361 74.123-2.298 77.998-2.338 4.677-5.528 6.441-13.047 7.217-4.703.485-5.453.853-5.453 2.673 0 2.103.107 2.11 32.5 2.128 32.496.018 32.5.018 32.5-2.111 0-1.864-.717-2.196-5.75-2.662-7.682-.712-10.798-2.308-12.952-6.634-2.527-5.075-2.806-152.595-.298-157.611 1.827-3.655 7.083-6.367 13.902-7.175 4.088-.484 5.098-.972 5.098-2.464 0-1.759-1.216-1.86-22.25-1.845l-22.25.015-12.747 34.235c-36.617 98.347-42.545 113.88-43.108 112.968-.338-.546-8.435-21.634-17.995-46.863-9.559-25.229-22.04-58.134-27.735-73.121l-10.354-27.25h-22.781c-21.545 0-22.78.101-22.78 1.861m-759.679 3.683c-7.091 3.652-6.821.304-6.821 84.456 0 84.026-.245 80.919 6.671 84.675 4.932 2.677 25.174 2.403 37.085-.504 31.203-7.614 44.742-30.122 46.419-77.171 1.842-51.656-11.304-79.69-42.018-89.605-10.683-3.448-36.031-4.584-41.336-1.851m654.159 35.136c-2.08 5.401-8.646 22.4-14.592 37.775-5.947 15.375-10.701 28.065-10.565 28.201.528.528 56.835.52 57.363-.008.582-.583-26.34-73.52-27.671-74.968-.415-.451-2.456 3.599-4.535 9" fill-rule="evenodd"/>
</svg>